<?xml version="1.0" encoding="UTF-8"?>
<svg width="188px" height="72px" viewBox="0 0 188 72" version="1.1" xmlns="http://www.w3.org/2000/svg" xmlns:xlink="http://www.w3.org/1999/xlink">
    <!-- Generator: Sketch 47.1 (45422) - http://www.bohemiancoding.com/sketch -->
    <title>Group 8 Copy 5</title>
    <desc>Created with Sketch.</desc>
    <defs></defs>
    <g id="Page-1" stroke="none" stroke-width="1" fill="none" fill-rule="evenodd">
        <g id="Group-8-Copy-5" fill="#000000">
            <path d="M36,72 C16.117749,72 0,55.882251 0,36 C0,16.117749 16.117749,0 36,0 C55.882251,0 72,16.117749 72,36 C72,55.882251 55.882251,72 36,72 Z M14.208,25.152 L14.208,48 L18.912,48 L18.912,32.704 L18.976,32.704 L28.48,48 L33.504,48 L33.504,25.152 L28.8,25.152 L28.8,40.48 L28.736,40.48 L19.2,25.152 L14.208,25.152 Z M57.312,39.36 L57.312,25.152 L52.288,25.152 L52.288,39.36 C52.288,41.0666752 51.9466701,42.319996 51.264,43.12 C50.5813299,43.920004 49.344009,44.32 47.552,44.32 C46.5279949,44.32 45.712003,44.1760014 45.104,43.888 C44.495997,43.5999986 44.021335,43.226669 43.68,42.768 C43.338665,42.309331 43.1146672,41.7813363 43.008,41.184 C42.9013328,40.5866637 42.848,39.9786698 42.848,39.36 L42.848,25.152 L37.824,25.152 L37.824,39.36 C37.824,42.4746822 38.6719915,44.7786592 40.368,46.272 C42.0640085,47.7653408 44.4586512,48.512 47.552,48.512 C50.6026819,48.512 52.9919914,47.7600075 54.72,46.256 C56.4480086,44.7519925 57.312,42.4533488 57.312,39.36 Z" id="Combined-Shape"></path>
            <text id="BINARY" font-family="HelveticaNeue-Light, Helvetica Neue" font-size="32" font-weight="300">
                <tspan x="76" y="48">BINARY</tspan>
            </text>
        </g>
    </g>
</svg>