<?xml version="1.0" encoding="UTF-8"?>
<svg width="94" height="36" viewBox="0 0 94 36" fill="none" xmlns="http://www.w3.org/2000/svg">
<g clip-path="url(#clip0_1019_4491)">
<path fill-rule="evenodd" clip-rule="evenodd" d="M18 36C8.05887 36 0 27.9411 0 18C0 8.05887 8.05887 0 18 0C27.9411 0 36 8.05887 36 18C36 27.9411 27.9411 36 18 36ZM7.104 12.576V24H9.456V16.352H9.488L14.24 24H16.752V12.576H14.4V20.24H14.368L9.6 12.576H7.104ZM28.656 19.68V12.576H26.144V19.68C26.144 20.5333 25.9733 21.16 25.632 21.56C25.2907 21.96 24.672 22.16 23.776 22.16C23.264 22.16 22.856 22.088 22.552 21.944C22.248 21.8 22.0107 21.6133 21.84 21.384C21.6693 21.1547 21.5573 20.8907 21.504 20.592C21.4507 20.2933 21.424 19.9893 21.424 19.68V12.576H18.912V19.68C18.912 21.2373 19.336 22.3893 20.184 23.136C21.032 23.8827 22.2293 24.256 23.776 24.256C25.3013 24.256 26.496 23.88 27.36 23.128C28.224 22.376 28.656 21.2267 28.656 19.68Z" fill="white"/>
<path d="M40.24 17.584H43.984C44.4213 17.584 44.8 17.536 45.12 17.44C45.44 17.3333 45.7067 17.1947 45.92 17.024C46.1333 16.8427 46.2933 16.6347 46.4 16.4C46.5067 16.1653 46.56 15.9147 46.56 15.648C46.56 14.2187 45.7013 13.504 43.984 13.504H40.24V17.584ZM39.152 12.576H43.984C44.464 12.576 44.9227 12.624 45.36 12.72C45.808 12.8053 46.1973 12.96 46.528 13.184C46.8693 13.3973 47.1413 13.6853 47.344 14.048C47.5467 14.4 47.648 14.8427 47.648 15.376C47.648 15.6747 47.6 15.968 47.504 16.256C47.408 16.5333 47.2693 16.7893 47.088 17.024C46.9173 17.248 46.7093 17.44 46.464 17.6C46.2293 17.76 45.9627 17.872 45.664 17.936V17.968C46.4 18.064 46.9867 18.368 47.424 18.88C47.8613 19.3813 48.08 20.0053 48.08 20.752C48.08 20.9333 48.064 21.1413 48.032 21.376C48 21.6 47.936 21.8347 47.84 22.08C47.744 22.3147 47.6053 22.5493 47.424 22.784C47.2427 23.0187 46.9973 23.2267 46.688 23.408C46.3893 23.5787 46.016 23.7227 45.568 23.84C45.1307 23.9467 44.6027 24 43.984 24H39.152V12.576ZM40.24 23.072H43.984C44.3893 23.072 44.7733 23.04 45.136 22.976C45.4987 22.9013 45.8187 22.7733 46.096 22.592C46.3733 22.4107 46.592 22.1707 46.752 21.872C46.912 21.5627 46.992 21.1787 46.992 20.72C46.992 19.984 46.7307 19.4347 46.208 19.072C45.696 18.6987 44.9547 18.512 43.984 18.512H40.24V23.072ZM49.9039 12.576H50.9919V24H49.9039V12.576ZM53.3548 12.576H54.5707L61.2268 22.24H61.2587V12.576H62.3468V24H61.1308L54.4748 14.336H54.4428V24H53.3548V12.576ZM66.2524 19.52H70.7484L68.5404 13.664L66.2524 19.52ZM67.9804 12.576H69.1964L73.6764 24H72.5084L71.1164 20.448H65.9164L64.5404 24H63.3884L67.9804 12.576ZM75.8025 18H79.8665C80.1972 18 80.5118 17.952 80.8105 17.856C81.1092 17.7493 81.3705 17.6 81.5945 17.408C81.8185 17.216 81.9945 16.9867 82.1225 16.72C82.2612 16.4427 82.3305 16.128 82.3305 15.776C82.3305 15.072 82.1278 14.5173 81.7225 14.112C81.3172 13.7067 80.6985 13.504 79.8665 13.504H75.8025V18ZM74.7145 12.576H79.9465C80.4158 12.576 80.8585 12.6347 81.2745 12.752C81.7012 12.8693 82.0692 13.0507 82.3785 13.296C82.6985 13.5307 82.9492 13.84 83.1305 14.224C83.3225 14.5973 83.4185 15.04 83.4185 15.552C83.4185 16.2773 83.2318 16.9067 82.8585 17.44C82.4852 17.9733 81.9305 18.3147 81.1945 18.464V18.496C81.5678 18.5493 81.8772 18.6507 82.1225 18.8C82.3678 18.9387 82.5652 19.12 82.7145 19.344C82.8745 19.568 82.9865 19.8293 83.0505 20.128C83.1252 20.416 83.1732 20.7307 83.1945 21.072C83.2052 21.264 83.2158 21.4987 83.2265 21.776C83.2372 22.0533 83.2585 22.336 83.2905 22.624C83.3225 22.9013 83.3705 23.168 83.4345 23.424C83.5092 23.6693 83.6052 23.8613 83.7225 24H82.5225C82.4585 23.8933 82.4052 23.7653 82.3625 23.616C82.3305 23.456 82.3038 23.296 82.2825 23.136C82.2718 22.9653 82.2612 22.8 82.2505 22.64C82.2398 22.48 82.2292 22.3413 82.2185 22.224C82.1972 21.8187 82.1598 21.4187 82.1065 21.024C82.0638 20.6187 81.9625 20.2613 81.8025 19.952C81.6532 19.632 81.4292 19.376 81.1305 19.184C80.8425 18.992 80.4425 18.9067 79.9305 18.928H75.8025V24H74.7145V12.576ZM88.3673 19.296L83.8872 12.576H85.1673L88.9273 18.368L92.6713 12.576H93.9673L89.4553 19.296V24H88.3673V19.296Z" fill="white"/>
</g>
<defs>
<clipPath id="clip0_1019_4491">
<rect width="94" height="36" fill="white"/>
</clipPath>
</defs>
</svg>
